<?xml version="1.0" standalone="no"?>
<!DOCTYPE svg PUBLIC "-//W3C//DTD SVG 20010904//EN"
 "http://www.w3.org/TR/2001/REC-SVG-20010904/DTD/svg10.dtd">
<svg version="1.0" xmlns="http://www.w3.org/2000/svg"
 width="16.000000pt" height="16.000000pt" viewBox="0 0 16.000000 16.000000"
 preserveAspectRatio="xMidYMid meet">

<g transform="translate(0.000000,16.000000) scale(0.100000,-0.100000)"
fill="#000000" stroke="none">
<path d="M27 143 c-4 -3 -7 -37 -7 -75 l0 -68 60 0 60 0 0 69 c0 39 -4 72 -9
75 -5 3 -6 -15 -3 -40 4 -43 3 -45 -27 -57 -17 -6 -31 -17 -31 -24 0 -7 -10
-13 -21 -13 -20 0 -21 4 -17 70 2 39 3 70 2 70 0 0 -4 -3 -7 -7z m97 -118 c4
-10 -1 -15 -16 -15 -17 0 -18 2 -8 15 7 8 14 15 15 15 2 0 5 -7 9 -15z"/>
<path d="M68 143 c6 -2 18 -2 25 0 6 3 1 5 -13 5 -14 0 -19 -2 -12 -5z"/>
<path d="M92 94 c-12 -8 -27 -12 -32 -9 -6 3 -10 2 -10 -4 0 -23 24 -22 48 3
30 29 27 34 -6 10z"/>
</g>
</svg>
