<?xml version="1.0" standalone="no"?>
<!DOCTYPE svg PUBLIC "-//W3C//DTD SVG 20010904//EN"
 "http://www.w3.org/TR/2001/REC-SVG-20010904/DTD/svg10.dtd">
<svg version="1.0" xmlns="http://www.w3.org/2000/svg"
 width="64.000000pt" height="64.000000pt" viewBox="0 0 64.000000 64.000000"
 preserveAspectRatio="xMidYMid meet">

<g transform="translate(0.000000,64.000000) scale(0.100000,-0.100000)"
fill="#000000" stroke="none">
<path d="M140 600 c-11 -11 -20 -31 -20 -44 0 -15 -7 -26 -20 -29 -29 -8 -25
-47 9 -85 35 -38 49 -35 87 20 l28 40 -22 18 c-33 27 -27 40 17 40 31 0 41 4
46 21 9 27 -6 42 -36 36 l-24 -4 23 -8 c31 -10 27 -25 -7 -25 -49 0 -61 -9
-61 -47 0 -30 3 -34 20 -28 27 9 25 -5 -8 -44 l-28 -33 -26 35 c-27 35 -28 50
-2 40 10 -4 14 3 14 26 0 21 9 41 25 57 14 14 25 27 25 29 0 12 -22 3 -40 -15z"/>
<path d="M401 594 c-17 -14 -31 -32 -31 -40 0 -9 -11 -14 -33 -14 -51 0 -57
-13 -57 -129 -1 -99 -2 -104 -16 -79 -18 34 -43 48 -86 48 -40 0 -76 -23 -88
-55 -7 -18 -18 -24 -47 -27 l-38 -3 0 -135 0 -135 169 -3 c129 -2 171 1 178
10 4 7 8 61 8 121 l0 107 98 2 97 2 -95 3 c-70 3 -97 8 -103 18 -4 8 -19 15
-32 15 -24 0 -25 3 -25 55 0 61 17 73 48 34 16 -18 52 -19 52 0 0 9 123 0 136
-10 15 -12 44 -1 44 17 0 8 9 14 20 14 18 0 20 -7 20 -69 0 -64 -2 -70 -22
-74 -16 -4 -13 -5 7 -4 l30 2 0 135 0 135 -38 3 c-29 3 -41 9 -49 28 -14 29
-56 54 -92 54 -13 0 -38 -12 -55 -26z m117 -21 c18 -18 22 -28 13 -31 -7 -2
-19 5 -27 17 -20 28 -69 28 -86 1 -15 -23 -28 -26 -28 -6 0 21 40 46 73 46 17
0 38 -10 55 -27z m-33 -23 c4 -6 -7 -10 -25 -10 -18 0 -29 4 -25 10 3 6 15 10
25 10 10 0 22 -4 25 -10z m135 -75 c0 -49 -12 -56 -51 -32 -17 10 -23 9 -39
-10 -15 -19 -28 -23 -73 -23 -46 0 -55 3 -60 20 -5 21 -31 27 -42 10 -3 -5
-17 -10 -31 -10 -22 0 -24 4 -24 45 l0 45 160 0 160 0 0 -45z m-240 -65 c0
-11 -4 -20 -10 -20 -5 0 -10 9 -10 20 0 11 5 20 10 20 6 0 10 -9 10 -20z m180
0 c0 -11 -4 -20 -10 -20 -5 0 -10 9 -10 20 0 11 5 20 10 20 6 0 10 -9 10 -20z
m-327 -68 c9 -8 17 -22 17 -30 0 -12 -5 -11 -22 5 -37 33 -55 34 -88 6 -36
-29 -47 -27 -24 6 30 42 78 47 117 13z m-39 -18 c26 -10 18 -24 -14 -24 -30 0
-41 14 -17 23 6 3 13 6 14 6 1 1 8 -2 17 -5z m146 -84 c0 -43 -21 -63 -43 -41
-16 16 -45 13 -55 -6 -7 -12 -23 -17 -62 -17 -39 0 -55 5 -62 17 -10 19 -39
22 -55 6 -22 -22 -43 -2 -43 41 l0 40 160 0 160 0 0 -40z m-240 -65 c0 -8 -4
-15 -10 -15 -5 0 -10 7 -10 15 0 8 5 15 10 15 6 0 10 -7 10 -15z m180 0 c0 -8
-4 -15 -10 -15 -5 0 -10 7 -10 15 0 8 5 15 10 15 6 0 10 -7 10 -15z m-217 -22
c9 -15 43 -17 52 -3 8 13 122 13 130 0 9 -14 43 -12 52 3 4 8 16 16 26 20 15
6 17 -1 17 -63 l0 -70 -160 0 -160 0 0 70 c0 62 2 69 18 63 9 -4 21 -12 25
-20z"/>
<path d="M512 221 c-7 -4 -23 -22 -37 -41 -19 -25 -22 -37 -14 -51 5 -11 17
-19 25 -19 32 0 6 -25 -29 -28 -76 -7 -70 -62 7 -62 49 0 81 20 90 56 4 15 17
35 29 44 l21 18 -28 40 c-30 44 -46 54 -64 43z m62 -82 c-2 -5 -11 -6 -19 -2
-11 4 -15 -2 -15 -24 0 -49 -25 -73 -76 -73 -56 0 -58 18 -1 22 41 3 42 4 45
42 3 31 0 38 -12 33 -26 -10 -26 8 2 42 l26 34 27 -33 c16 -18 26 -37 23 -41z"/>
</g>
</svg>
