<svg xmlns="http://www.w3.org/2000/svg" version="1.1" width="128px" height="128px" style="shape-rendering:geometricPrecision; text-rendering:geometricPrecision; image-rendering:optimizeQuality; fill-rule:evenodd; clip-rule:evenodd">
<g><path style="opacity:0.809" fill="#dcb142" d="M 61.5,1.5 C 62.8734,1.34332 64.2068,1.50999 65.5,2C 69.7565,5.04531 73.9232,8.21198 78,11.5C 83.7658,9.95184 89.5992,9.61851 95.5,10.5C 97.57,15.2091 99.7366,19.8758 102,24.5C 106.635,27.234 111.468,29.5673 116.5,31.5C 116.827,37.791 116.993,44.1243 117,50.5C 120.066,54.7224 122.899,59.0557 125.5,63.5C 122.899,67.9443 120.066,72.2776 117,76.5C 116.993,82.8757 116.827,89.209 116.5,95.5C 111.581,97.7962 106.581,99.7962 101.5,101.5C 99.7962,106.581 97.7962,111.581 95.5,116.5C 89.5992,117.381 83.7658,117.048 78,115.5C 73.3882,119.217 68.5548,122.55 63.5,125.5C 59.0557,122.899 54.7224,120.066 50.5,117C 44.1243,116.993 37.791,116.827 31.5,116.5C 29.2038,111.581 27.2038,106.581 25.5,101.5C 20.4192,99.7962 15.4192,97.7962 10.5,95.5C 10.1735,89.209 10.0068,82.8757 10,76.5C 6.93434,72.2776 4.10101,67.9443 1.5,63.5C 4.10101,59.0557 6.93434,54.7224 10,50.5C 10.0068,44.1243 10.1735,37.791 10.5,31.5C 15.4192,29.2038 20.4192,27.2038 25.5,25.5C 27.2038,20.4192 29.2038,15.4192 31.5,10.5C 37.791,10.1735 44.1243,10.0068 50.5,10C 54.5969,7.63042 58.2635,4.79708 61.5,1.5 Z M 62.5,8.5 C 66.9331,11.0845 71.2664,13.9178 75.5,17C 80.5296,17.0304 85.5296,16.5304 90.5,15.5C 92.9355,20.0378 95.1021,24.7045 97,29.5C 101.888,31.6937 106.721,34.027 111.5,36.5C 110.47,41.4704 109.97,46.4704 110,51.5C 112.639,55.6388 115.472,59.6388 118.5,63.5C 115.472,67.3612 112.639,71.3612 110,75.5C 109.97,80.5296 110.47,85.5296 111.5,90.5C 106.962,92.9355 102.296,95.1021 97.5,97C 95.3063,101.888 92.973,106.721 90.5,111.5C 85.5296,110.47 80.5296,109.97 75.5,110C 71.3612,112.639 67.3612,115.472 63.5,118.5C 59.6388,115.472 55.6388,112.639 51.5,110C 46.1596,110.093 40.8263,110.593 35.5,111.5C 33.9634,106.753 32.1301,102.087 30,97.5C 25.1123,95.3063 20.2789,92.973 15.5,90.5C 16.5304,85.5296 17.0304,80.5296 17,75.5C 14.3609,71.3612 11.5276,67.3612 8.5,63.5C 11.5276,59.6388 14.3609,55.6388 17,51.5C 17.0304,46.4704 16.5304,41.4704 15.5,36.5C 20.2789,34.027 25.1123,31.6937 30,29.5C 32.1301,24.9133 33.9634,20.2467 35.5,15.5C 40.8263,16.4072 46.1596,16.9072 51.5,17C 55.638,14.6855 59.3047,11.8521 62.5,8.5 Z"/></g>
<g><path style="opacity:0.792" fill="#dcb142" d="M 93.5,38.5 C 96.0842,38.5688 98.0842,39.7355 99.5,42C 84,57.5 68.5,73 53,88.5C 46.6667,82.1667 40.3333,75.8333 34,69.5C 33.5507,66.9063 34.5507,64.9063 37,63.5C 42.3333,68.8333 47.6667,74.1667 53,79.5C 66.7019,65.9652 80.2019,52.2985 93.5,38.5 Z"/></g>
</svg>
