<?xml version="1.0" standalone="no"?>
<!DOCTYPE svg PUBLIC "-//W3C//DTD SVG 20010904//EN"
 "http://www.w3.org/TR/2001/REC-SVG-20010904/DTD/svg10.dtd">
<svg version="1.0" xmlns="http://www.w3.org/2000/svg"
 width="231.000000pt" height="51.000000pt" viewBox="0 0 231.000000 51.000000"
 preserveAspectRatio="xMidYMid meet">

<g transform="translate(0.000000,51.000000) scale(0.100000,-0.100000)"
fill="#000000" stroke="none">
<path d="M228 393 c-76 -76 -118 -124 -118 -138 0 -27 229 -255 255 -255 25 0
255 230 255 255 0 25 -230 255 -255 255 -10 0 -71 -52 -137 -117z m138 -22
c-33 -34 -37 -42 -26 -56 17 -21 20 -20 64 21 38 35 39 35 57 17 19 -18 18
-20 -41 -78 l-60 -60 -57 58 -58 57 60 60 c59 60 59 60 79 40 20 -20 20 -20
-18 -59z m-76 -156 l75 -75 77 77 c77 76 77 77 98 58 21 -19 21 -19 -77 -117
l-98 -98 -97 97 c-92 91 -96 98 -81 115 9 10 19 18 22 18 4 0 40 -34 81 -75z"/>
<path d="M760 255 l0 -105 65 0 c58 0 65 2 65 20 0 17 -7 20 -45 20 l-45 0 0
85 c0 78 -2 85 -20 85 -19 0 -20 -7 -20 -105z"/>
<path d="M910 255 l0 -105 70 0 c63 0 70 2 70 20 0 17 -7 20 -45 20 -41 0 -45
2 -45 25 0 23 4 25 46 25 38 0 45 3 42 18 -2 12 -15 18 -46 20 -34 3 -42 7
-42 23 0 16 7 19 45 19 38 0 45 3 45 20 0 18 -7 20 -70 20 l-70 0 0 -105z"/>
<path d="M1070 340 c0 -16 6 -20 30 -20 l30 0 0 -85 c0 -78 2 -85 20 -85 18 0
20 7 20 85 l0 85 36 0 c28 0 35 3 32 18 -3 14 -16 17 -86 20 -77 3 -82 2 -82
-18z"/>
<path d="M1267 353 c-3 -5 -8 -23 -12 -40 -9 -46 16 -44 38 2 9 20 17 38 17
40 0 8 -38 6 -43 -2z"/>
<path d="M1354 335 c-23 -35 -7 -68 46 -95 22 -11 40 -27 40 -35 0 -21 -50
-19 -65 2 -7 9 -19 14 -29 10 -41 -16 7 -67 62 -67 92 0 99 95 9 129 -15 6
-27 18 -27 27 0 13 7 15 34 10 41 -8 59 10 31 31 -32 22 -82 17 -101 -12z"/>
<path d="M1537 335 c-42 -42 -42 -117 0 -159 37 -37 103 -37 141 1 l26 26 -23
11 c-18 8 -25 7 -32 -7 -14 -24 -75 -23 -89 2 -15 29 -12 77 6 95 20 21 58 20
79 0 12 -12 22 -14 36 -7 20 8 20 9 -7 36 -37 37 -100 38 -137 2z"/>
<path d="M1780 336 c-5 -14 -23 -57 -40 -97 -16 -39 -30 -75 -30 -80 0 -19 42
-9 47 11 8 29 88 29 96 0 5 -20 47 -30 47 -11 0 5 -18 51 -39 102 -41 99 -64
120 -81 75z m39 -76 c9 -28 8 -30 -14 -30 -22 0 -23 2 -14 30 6 17 12 30 14
30 2 0 8 -13 14 -30z"/>
<path d="M1930 255 l0 -106 63 3 c47 2 62 7 62 18 0 10 -13 16 -42 18 l-43 3
0 85 c0 77 -2 84 -20 84 -19 0 -20 -7 -20 -105z"/>
<path d="M2080 255 l0 -106 63 3 c47 2 62 7 62 18 0 10 -13 16 -42 18 l-43 3
0 85 c0 77 -2 84 -20 84 -19 0 -20 -7 -20 -105z"/>
</g>
</svg>
