<?xml version="1.0" standalone="no"?>
<!DOCTYPE svg PUBLIC "-//W3C//DTD SVG 20010904//EN"
 "http://www.w3.org/TR/2001/REC-SVG-20010904/DTD/svg10.dtd">
<svg version="1.0" xmlns="http://www.w3.org/2000/svg"
 width="64.000000pt" height="64.000000pt" viewBox="0 0 64.000000 64.000000"
 preserveAspectRatio="xMidYMid meet">

<g transform="translate(0.000000,64.000000) scale(0.100000,-0.100000)"
fill="#000000" stroke="none">
<path d="M251 606 c-49 -19 -71 -50 -71 -102 0 -23 -4 -46 -10 -49 -17 -10
-11 -61 10 -85 18 -21 36 -59 28 -63 -1 -1 -38 -19 -80 -39 -94 -46 -110 -70
-106 -161 l3 -62 115 -3 c88 -2 116 -6 123 -17 11 -21 103 -21 114 0 7 11 35
15 123 17 l115 3 3 62 c4 91 -12 115 -106 161 -42 20 -79 38 -80 39 -8 4 10
42 28 63 23 27 25 67 5 94 -13 17 -13 21 0 30 13 10 13 15 -2 45 -10 19 -30
44 -45 54 -33 25 -119 31 -167 13z m146 -26 c39 -23 61 -59 43 -70 -14 -9 -4
-70 11 -70 13 0 11 -36 -3 -52 -7 -8 -23 -32 -34 -54 -12 -22 -37 -48 -58 -59
l-36 -20 -36 20 c-21 11 -46 37 -58 59 -11 22 -27 46 -33 54 -15 16 -17 52 -3
52 6 0 10 24 10 53 0 64 6 73 55 91 56 20 105 19 142 -4z m-139 -315 c20 -14
48 -25 62 -25 14 0 42 11 62 25 64 43 66 26 6 -51 -32 -40 -49 -54 -68 -54
-19 0 -36 14 -68 54 -60 77 -58 94 6 51z m-31 -50 c36 -46 38 -54 35 -102 l-4
-53 -109 0 -109 0 0 56 c0 30 5 64 10 75 10 18 117 80 131 76 4 -1 24 -24 46
-52z m293 25 c33 -16 64 -39 70 -49 5 -11 10 -45 10 -75 l0 -56 -109 0 -109 0
-4 53 c-3 48 0 56 37 104 22 29 41 53 43 53 1 0 29 -13 62 -30z m-220 -125
c10 -27 24 -32 36 -13 4 6 -1 17 -11 25 -18 12 -17 13 8 13 26 0 27 -2 27 -55
l0 -55 -40 0 -40 0 0 55 c0 60 5 68 20 30z"/>
<path d="M240 519 c-14 -24 -3 -42 11 -18 8 15 13 15 46 3 45 -16 103 -18 103
-4 0 6 -14 10 -30 10 -17 0 -47 7 -67 15 -46 19 -50 19 -63 -6z"/>
<path d="M60 100 c0 -11 5 -20 10 -20 6 0 10 9 10 20 0 11 -4 20 -10 20 -5 0
-10 -9 -10 -20z"/>
<path d="M110 100 c0 -11 5 -20 10 -20 6 0 10 9 10 20 0 11 -4 20 -10 20 -5 0
-10 -9 -10 -20z"/>
<path d="M160 100 c0 -11 5 -20 10 -20 6 0 10 9 10 20 0 11 -4 20 -10 20 -5 0
-10 -9 -10 -20z"/>
<path d="M210 100 c0 -11 5 -20 10 -20 6 0 10 9 10 20 0 11 -4 20 -10 20 -5 0
-10 -9 -10 -20z"/>
<path d="M410 100 c0 -11 5 -20 10 -20 6 0 10 9 10 20 0 11 -4 20 -10 20 -5 0
-10 -9 -10 -20z"/>
<path d="M460 100 c0 -11 5 -20 10 -20 6 0 10 9 10 20 0 11 -4 20 -10 20 -5 0
-10 -9 -10 -20z"/>
<path d="M510 100 c0 -11 5 -20 10 -20 6 0 10 9 10 20 0 11 -4 20 -10 20 -5 0
-10 -9 -10 -20z"/>
<path d="M560 100 c0 -11 5 -20 10 -20 6 0 10 9 10 20 0 11 -4 20 -10 20 -5 0
-10 -9 -10 -20z"/>
</g>
</svg>
