<?xml version="1.0" standalone="no"?>
<!DOCTYPE svg PUBLIC "-//W3C//DTD SVG 20010904//EN"
 "http://www.w3.org/TR/2001/REC-SVG-20010904/DTD/svg10.dtd">
<svg version="1.0" xmlns="http://www.w3.org/2000/svg"
 width="64.000000pt" height="64.000000pt" viewBox="0 0 64.000000 64.000000"
 preserveAspectRatio="xMidYMid meet">

<g transform="translate(0.000000,64.000000) scale(0.100000,-0.100000)"
fill="#000000" stroke="none">
<path d="M244 622 c-49 -23 -79 -62 -94 -124 -17 -65 -10 -110 18 -124 13 -7
32 -25 43 -40 10 -16 24 -36 30 -45 19 -26 4 -45 -46 -59 -26 -7 -62 -28 -81
-45 -33 -31 -34 -35 -34 -109 0 -74 1 -76 24 -76 31 0 42 16 16 23 -16 4 -20
14 -20 52 0 69 22 102 83 124 24 9 29 7 42 -20 9 -17 24 -29 35 -29 15 0 20
-7 20 -29 0 -54 -13 -94 -32 -98 -10 -3 -18 -9 -18 -14 0 -5 74 -9 165 -9
l165 0 0 76 c0 74 -1 78 -33 108 -19 17 -56 38 -83 47 -31 9 -50 21 -52 33 -5
26 27 56 59 56 19 0 32 7 40 22 16 30 6 154 -16 201 -38 81 -147 118 -231 79z
m153 -32 c36 -22 58 -52 68 -92 11 -44 -11 -33 -35 16 -48 100 -177 100 -222
-1 -21 -48 -44 -59 -33 -15 23 96 138 144 222 92z m-6 -59 c16 -16 29 -37 29
-45 0 -19 -1 -19 -34 -6 -19 7 -40 4 -82 -10 -31 -11 -63 -20 -71 -20 -24 0
-14 50 16 81 23 23 38 29 71 29 33 0 48 -6 71 -29z m4 -83 c19 -9 25 -19 25
-44 0 -56 -7 -64 -61 -64 -27 0 -49 -4 -49 -10 0 -5 17 -10 38 -10 35 -1 36
-2 18 -15 -59 -45 -146 12 -146 95 0 26 4 30 28 31 15 0 43 7 62 14 45 17 53
18 85 3z m-205 -33 c0 -14 -4 -25 -10 -25 -5 0 -10 11 -10 25 0 14 5 25 10 25
6 0 10 -11 10 -25z m280 0 c0 -14 -4 -25 -10 -25 -5 0 -10 11 -10 25 0 14 5
25 10 25 6 0 10 -11 10 -25z m0 -60 c0 -8 -7 -15 -15 -15 -16 0 -20 12 -8 23
11 12 23 8 23 -8z m-110 -100 c0 -22 -36 -38 -60 -25 -35 19 -24 40 20 40 28
0 40 -4 40 -15z m-73 -51 c6 -17 -29 -27 -39 -12 -4 7 -8 17 -8 21 0 12 43 4
47 -9z m113 9 c-1 -19 -18 -33 -33 -27 -18 6 -21 16 -10 27 9 9 43 9 43 0z
m109 -44 c25 -24 33 -53 29 -105 l-3 -39 -74 -3 c-41 -2 -78 1 -83 6 -5 5 -12
35 -15 66 -5 52 -4 56 15 56 14 0 27 11 37 29 14 27 18 29 44 20 15 -6 38 -19
50 -30z m-171 -16 c-2 -17 -9 -28 -18 -28 -9 0 -16 11 -18 28 -3 22 1 27 18
27 17 0 21 -5 18 -27z m4 -88 c9 -34 -1 -49 -28 -43 -18 4 -22 31 -9 66 8 22
28 8 37 -23z"/>
<path d="M417 84 c-13 -14 6 -24 44 -24 28 0 39 4 39 15 0 11 -11 15 -38 15
-21 0 -42 -3 -45 -6z"/>
<path d="M170 10 c0 -5 5 -10 10 -10 6 0 10 5 10 10 0 6 -4 10 -10 10 -5 0
-10 -4 -10 -10z"/>
</g>
</svg>
