<?xml version="1.0" encoding="UTF-8"?>
<svg version="1.1" xmlns="http://www.w3.org/2000/svg" width="64" height="64">
<path d="M0 0 C2.875 -0.125 2.875 -0.125 6 0 C8.46278801 2.46278801 8.99771255 4.70676982 10 8 C12.64 8 15.28 8 18 8 C18.474375 6.865625 18.94875 5.73125 19.4375 4.5625 C21 1 21 1 22 0 C23.99958364 -0.04080783 26.00045254 -0.04254356 28 0 C30.45029331 5.71735105 31.33266291 9.79029227 31 16 C26.71 16 22.42 16 18 16 C18 14.68 18 13.36 18 12 C17.01 12 16.02 12 15 12 C15 14.97 15 17.94 15 21 C17.64 21 20.28 21 23 21 C23 22.98 23 24.96 23 27 C23.99 27.33 24.98 27.66 26 28 C27.1875 31.5625 27.1875 31.5625 28 35 C30.97 35.495 30.97 35.495 34 36 C34.99 33.03 35.98 30.06 37 27 C39.375 26.375 39.375 26.375 42 26 C45.66739101 29.66739101 46.125 33.86829525 46.125 38.875 C46.08375 40.23625 46.0425 41.5975 46 43 C42.04 43 38.08 43 34 43 C34 41.68 34 40.36 34 39 C33.34 39 32.68 39 32 39 C32 42.96 32 46.92 32 51 C33.65 50.34 35.3 49.68 37 49 C39.6875 48.25 39.6875 48.25 42 48 C45.50755794 51.50755794 46.125 55.5605227 46.125 60.375 C46.08375 61.57125 46.0425 62.7675 46 64 C42.04 64 38.08 64 34 64 C33.90234375 57.84765625 33.90234375 57.84765625 34 56 C34.33 55.67 34.66 55.34 35 55 C32.36 55 29.72 55 27 55 C27.33 55.33 27.66 55.66 28 56 C28.14115161 58.67058851 28.04247107 61.32432238 28 64 C23.71 64 19.42 64 15 64 C14.75 57.375 14.75 57.375 17 54 C17.35613097 52.33805547 17.69208308 50.671549 18 49 C19 48 19 48 21.25 47.75 C24.51946116 48.04722374 26.32008236 49.16234219 29 51 C28.505 47.04 28.505 47.04 28 43 C26.35 43 24.7 43 23 43 C23 42.01 23 41.02 23 40 C23.66 40 24.32 40 25 40 C24.505 38.02 24.505 38.02 24 36 C22.35 36 20.7 36 19 36 C18.67 37.32 18.34 38.64 18 40 C18.99 40 19.98 40 21 40 C20.67 40.99 20.34 41.98 20 43 C18.35 43 16.7 43 15 43 C14.66733709 36.79029227 15.54970669 32.71735105 18 27 C18.66 27 19.32 27 20 27 C20 26.01 20 25.02 20 24 C16.04 24 12.08 24 8 24 C8 24.99 8 25.98 8 27 C8.66 27 9.32 27 10 27 C12.45029331 32.71735105 13.33266291 36.79029227 13 43 C8.71 43 4.42 43 0 43 C-0.33 44.98 -0.66 46.96 -1 49 C-0.34 49 0.32 49 1 49 C1.309375 49.94875 1.61875 50.8975 1.9375 51.875 C2.87394742 54.86080408 2.87394742 54.86080408 4 57 C4.04022391 59.3329866 4.04320247 61.66706666 4 64 C2.02 64 0.04 64 -2 64 C-2 63.34 -2 62.68 -2 62 C-1.01 62 -0.02 62 1 62 C0.67 60.68 0.34 59.36 0 58 C-1.98 57.67 -3.96 57.34 -6 57 C-6 58.65 -6 60.3 -6 62 C-5.34 62 -4.68 62 -4 62 C-4 62.66 -4 63.32 -4 64 C-5.65 64 -7.3 64 -9 64 C-9.31503541 58.01432727 -8.72729876 54.34550556 -6 49 C-5.505 48.505 -5.505 48.505 -5 48 C-4.76807135 46.48530552 -4.58784762 44.96245438 -4.4375 43.4375 C-4.35371094 42.61121094 -4.26992187 41.78492188 -4.18359375 40.93359375 C-4.12300781 40.29550781 -4.06242188 39.65742187 -4 39 C-4.66 39 -5.32 39 -6 39 C-6 40.32 -6 41.64 -6 43 C-9.96 43 -13.92 43 -18 43 C-18.28676671 36.78672119 -18.25845235 32.39330044 -15 27 C-12.4375 25.9375 -12.4375 25.9375 -10 26 C-7.04816899 28.95183101 -6.91336012 31.95511947 -6 36 C-3.07797583 36.14031566 -3.07797583 36.14031566 0 35 C1.46581614 32.46032588 2.26532365 29.82914839 3 27 C3.66 27 4.32 27 5 27 C5 25.02 5 23.04 5 21 C7.64 21 10.28 21 13 21 C13 18.03 13 15.06 13 12 C12.01 12 11.02 12 10 12 C10 13.32 10 14.64 10 16 C8.02 16 6.04 16 4 16 C4 15.01 4 14.02 4 13 C4.99 13 5.98 13 7 13 C7 11.68 7 10.36 7 9 C4.69 9 2.38 9 0 9 C0 10.32 0 11.64 0 13 C0.99 13.33 1.98 13.66 3 14 C2.67 14.66 2.34 15.32 2 16 C0.35 16 -1.3 16 -3 16 C-3.33266291 9.79029227 -2.45029331 5.71735105 0 0 Z M3 2 C2.67 2.99 2.34 3.98 2 5 C2.99 5 3.98 5 5 5 C4.67 4.01 4.34 3.02 4 2 C3.67 2 3.34 2 3 2 Z M24 2 C23.67 2.99 23.34 3.98 23 5 C23.99 5 24.98 5 26 5 C25.67 4.01 25.34 3.02 25 2 C24.67 2 24.34 2 24 2 Z M21 9 C21 10.32 21 11.64 21 13 C23.31 13 25.62 13 28 13 C28 11.68 28 10.36 28 9 C24.41672247 7.99782936 24.41672247 7.99782936 21 9 Z M-13 29 C-13 29.99 -13 30.98 -13 32 C-12.34 32 -11.68 32 -11 32 C-11 31.01 -11 30.02 -11 29 C-11.66 29 -12.32 29 -13 29 Z M6 29 C5.67 29.99 5.34 30.98 5 32 C5.99 32 6.98 32 8 32 C7.67 31.01 7.34 30.02 7 29 C6.67 29 6.34 29 6 29 Z M21 29 C20.67 29.99 20.34 30.98 20 32 C20.99 32 21.98 32 23 32 C22.67 31.01 22.34 30.02 22 29 C21.67 29 21.34 29 21 29 Z M39 29 C39 29.99 39 30.98 39 32 C39.66 32 40.32 32 41 32 C41 31.01 41 30.02 41 29 C40.34 29 39.68 29 39 29 Z M-14 35 C-14.66 35.66 -15.32 36.32 -16 37 C-16 37.99 -16 38.98 -16 40 C-13.36 40 -10.72 40 -8 40 C-8.33 38.68 -8.66 37.36 -9 36 C-11.39719432 35.32041397 -11.39719432 35.32041397 -14 35 Z M4 35 C3.67 36.65 3.34 38.3 3 40 C5.31 40 7.62 40 10 40 C9.67 38.35 9.34 36.7 9 35 C7.35 35 5.7 35 4 35 Z M38 35 C37.34 35.66 36.68 36.32 36 37 C36 37.99 36 38.98 36 40 C38.64 40 41.28 40 44 40 C43.67 38.68 43.34 37.36 43 36 C40.60280568 35.32041397 40.60280568 35.32041397 38 35 Z M-4 51 C-4 51.99 -4 52.98 -4 54 C-3.01 53.67 -2.02 53.34 -1 53 C-1.33 52.34 -1.66 51.68 -2 51 C-2.66 51 -3.32 51 -4 51 Z M21 51 C21 51.99 21 52.98 21 54 C21.66 54 22.32 54 23 54 C23 53.01 23 52.02 23 51 C22.34 51 21.68 51 21 51 Z M39 51 C39 51.99 39 52.98 39 54 C39.99 53.67 40.98 53.34 42 53 C41.67 52.34 41.34 51.68 41 51 C40.34 51 39.68 51 39 51 Z M19 57 C18.67 58.65 18.34 60.3 18 62 C20.31 62 22.62 62 25 62 C24.67 60.35 24.34 58.7 24 57 C22.35 57 20.7 57 19 57 Z M37 57 C36.67 58.65 36.34 60.3 36 62 C38.64 62 41.28 62 44 62 C43.67 60.35 43.34 58.7 43 57 C41.02 57 39.04 57 37 57 Z " fill="#000000" transform="translate(18,0)"/>
</svg>
