<?xml version="1.0" standalone="no"?>
<!DOCTYPE svg PUBLIC "-//W3C//DTD SVG 20010904//EN"
 "http://www.w3.org/TR/2001/REC-SVG-20010904/DTD/svg10.dtd">
<svg version="1.0" xmlns="http://www.w3.org/2000/svg"
 width="64.000000pt" height="64.000000pt" viewBox="0 0 64.000000 64.000000"
 preserveAspectRatio="xMidYMid meet">

<g transform="translate(0.000000,64.000000) scale(0.100000,-0.100000)"
fill="#000000" stroke="none">
<path d="M109 604 c-35 -22 -49 -47 -58 -103 -5 -25 -12 -53 -15 -63 -7 -16 6
-34 92 -123 35 -36 35 -37 -19 -54 -20 -6 -49 -25 -65 -42 -27 -28 -29 -37
-33 -115 l-3 -84 291 0 291 0 5 23 c7 33 25 139 25 149 0 4 -51 8 -113 8
l-114 0 -10 -47 c-10 -46 -10 -46 -12 -13 0 19 -10 49 -20 66 -18 30 -74 64
-105 64 -9 0 -16 3 -16 6 0 7 53 70 95 114 23 24 24 29 17 108 -10 107 -16
113 -123 118 -66 4 -89 1 -110 -12z m200 -19 c15 -14 29 -115 16 -115 -4 0
-16 12 -27 26 -30 37 -63 47 -98 29 -16 -8 -44 -15 -61 -15 -20 0 -42 -9 -57
-22 l-25 -23 7 35 c8 42 34 80 67 98 30 16 157 6 178 -13z m-32 -87 c50 -47 9
-170 -65 -199 -55 -21 -122 51 -122 132 0 54 17 74 55 65 16 -4 34 -1 48 9 30
21 57 19 84 -7z m-210 -85 c-4 -17 -4 -17 -12 0 -4 9 -4 25 0 35 8 16 8 16 12
0 3 -10 3 -26 0 -35z m263 17 c0 -10 -4 -22 -10 -25 -6 -4 -10 7 -10 25 0 18
4 29 10 25 6 -3 10 -15 10 -25z m-106 -166 c14 -36 -39 -59 -64 -29 -10 12
-10 18 0 30 17 20 56 19 64 -1z m-70 -40 c14 -20 16 -28 6 -37 -9 -9 -15 -7
-26 7 -15 21 -19 56 -6 56 4 0 15 -12 26 -26z m111 4 c-11 -36 -33 -54 -47
-40 -9 9 -6 17 12 37 29 31 43 32 35 3z m-165 0 c1 -20 20 -148 26 -175 6 -24
5 -24 -47 -21 l-54 3 -3 40 c-5 58 6 101 34 135 27 32 44 38 44 18z m245 -38
c9 -17 15 -56 15 -95 l0 -65 -51 0 c-51 0 -51 0 -44 28 6 22 23 142 25 175 0
16 40 -15 55 -43z m-140 -10 c3 -5 -1 -10 -10 -10 -9 0 -13 5 -10 10 3 6 8 10
10 10 2 0 7 -4 10 -10z m55 -72 c-11 -54 -25 -86 -34 -78 -2 3 -8 33 -12 68
-6 58 -5 62 14 62 11 0 23 8 27 18 14 32 18 -12 5 -70z m-90 -10 c0 -98 -28
-74 -45 39 l-7 42 26 -12 c23 -11 26 -18 26 -69z m430 70 c0 -6 -5 -40 -11
-75 l-11 -63 -100 0 -100 0 6 32 c3 18 8 52 12 76 l7 42 98 0 c69 0 99 -4 99
-12z m-400 -78 c0 -33 -4 -60 -10 -60 -11 0 -13 62 -4 98 10 36 14 26 14 -38z"/>
<path d="M40 85 c0 -19 4 -35 8 -35 4 0 6 16 4 35 -5 45 -12 45 -12 0z"/>
<path d="M88 53 c7 -3 16 -2 19 1 4 3 -2 6 -13 5 -11 0 -14 -3 -6 -6z"/>
<path d="M471 126 c-17 -20 -2 -48 23 -44 24 3 34 37 14 49 -18 12 -24 11 -37
-5z m31 -21 c0 -5 -5 -11 -11 -13 -6 -2 -11 4 -11 13 0 9 5 15 11 13 6 -2 11
-8 11 -13z"/>
<path d="M371 466 c-7 -9 -11 -41 -9 -83 l3 -68 83 -3 82 -3 0 -37 1 -37 32
36 c18 19 40 38 50 42 24 9 26 152 1 161 -9 3 -64 6 -124 6 -80 0 -111 -4
-119 -14z m247 -74 c3 -58 1 -63 -21 -71 -13 -5 -27 -17 -30 -25 -9 -23 -27
-20 -27 4 0 18 -7 20 -80 20 l-80 0 0 70 0 71 118 -3 117 -3 3 -63z"/>
<path d="M537 444 c-4 -4 -7 -29 -7 -56 0 -45 2 -48 26 -48 24 0 25 2 22 52
-2 38 -7 54 -18 56 -9 1 -19 0 -23 -4z m33 -54 c0 -22 -4 -40 -10 -40 -5 0
-10 18 -10 40 0 22 5 40 10 40 6 0 10 -18 10 -40z"/>
<path d="M470 375 c0 -31 3 -35 25 -35 22 0 25 4 25 35 0 31 -3 35 -25 35 -22
0 -25 -4 -25 -35z m40 0 c0 -14 -4 -25 -10 -25 -5 0 -10 11 -10 25 0 14 5 25
10 25 6 0 10 -11 10 -25z"/>
<path d="M417 394 c-4 -4 -7 -18 -7 -31 0 -18 5 -23 26 -23 22 0 25 4 22 27
-3 27 -26 41 -41 27z m33 -29 c0 -8 -4 -15 -10 -15 -5 0 -10 7 -10 15 0 8 5
15 10 15 6 0 10 -7 10 -15z"/>
</g>
</svg>
