<?xml version="1.0" encoding="UTF-8"?>
<svg version="1.1" xmlns="http://www.w3.org/2000/svg" width="32" height="32">
<path d="M0 0 C1.051875 0.01160156 1.051875 0.01160156 2.125 0.0234375 C2.82625 0.01570312 3.5275 0.00796875 4.25 0 C6.125 0.3984375 6.125 0.3984375 8.125 3.3984375 C8.35205078 5.8503418 8.35205078 5.8503418 8.3203125 8.72265625 C8.31386719 9.75068359 8.30742188 10.77871094 8.30078125 11.83789062 C8.28402344 12.90974609 8.26726563 13.98160156 8.25 15.0859375 C8.24097656 16.16939453 8.23195312 17.25285156 8.22265625 18.36914062 C8.1990734 21.0457946 8.16616126 23.72200547 8.125 26.3984375 C9.14654175 26.38272705 9.14654175 26.38272705 10.1887207 26.36669922 C13.27160966 26.32514872 16.35443971 26.29911439 19.4375 26.2734375 C20.50935547 26.25667969 21.58121094 26.23992188 22.68554688 26.22265625 C23.71357422 26.21621094 24.74160156 26.20976562 25.80078125 26.203125 C26.74864502 26.19265137 27.69650879 26.18217773 28.6730957 26.17138672 C31.125 26.3984375 31.125 26.3984375 34.125 28.3984375 C34.5234375 30.2734375 34.5234375 30.2734375 34.5 32.3984375 C34.51160156 33.4503125 34.51160156 33.4503125 34.5234375 34.5234375 C34.125 36.3984375 34.125 36.3984375 31.125 38.3984375 C28.6730957 38.62548828 28.6730957 38.62548828 25.80078125 38.59375 C24.25874023 38.58408203 24.25874023 38.58408203 22.68554688 38.57421875 C21.61369141 38.55746094 20.54183594 38.54070313 19.4375 38.5234375 C18.35404297 38.51441406 17.27058594 38.50539062 16.15429688 38.49609375 C13.4776429 38.4725109 10.80143203 38.43959876 8.125 38.3984375 C8.14071045 39.41997925 8.14071045 39.41997925 8.15673828 40.4621582 C8.19828878 43.54504716 8.22432311 46.62787721 8.25 49.7109375 C8.26675781 50.78279297 8.28351562 51.85464844 8.30078125 52.95898438 C8.31044922 54.50102539 8.31044922 54.50102539 8.3203125 56.07421875 C8.33602295 57.4960144 8.33602295 57.4960144 8.35205078 58.9465332 C8.125 61.3984375 8.125 61.3984375 6.125 64.3984375 C4.25 64.796875 4.25 64.796875 2.125 64.7734375 C1.42375 64.78117187 0.7225 64.78890625 0 64.796875 C-1.875 64.3984375 -1.875 64.3984375 -3.875 61.3984375 C-4.10205078 58.9465332 -4.10205078 58.9465332 -4.0703125 56.07421875 C-4.06386719 55.04619141 -4.05742187 54.01816406 -4.05078125 52.95898438 C-4.03402344 51.88712891 -4.01726563 50.81527344 -4 49.7109375 C-3.99097656 48.62748047 -3.98195313 47.54402344 -3.97265625 46.42773438 C-3.9490734 43.7510804 -3.91616126 41.07486953 -3.875 38.3984375 C-4.55602783 38.40891113 -5.23705566 38.41938477 -5.9387207 38.43017578 C-9.02160966 38.47172628 -12.10443971 38.49776061 -15.1875 38.5234375 C-16.25935547 38.54019531 -17.33121094 38.55695312 -18.43554688 38.57421875 C-19.46357422 38.58066406 -20.49160156 38.58710937 -21.55078125 38.59375 C-22.49864502 38.60422363 -23.44650879 38.61469727 -24.4230957 38.62548828 C-26.875 38.3984375 -26.875 38.3984375 -29.875 36.3984375 C-30.2734375 34.5234375 -30.2734375 34.5234375 -30.25 32.3984375 C-30.25773437 31.6971875 -30.26546875 30.9959375 -30.2734375 30.2734375 C-29.875 28.3984375 -29.875 28.3984375 -26.875 26.3984375 C-24.4230957 26.17138672 -24.4230957 26.17138672 -21.55078125 26.203125 C-20.00874023 26.21279297 -20.00874023 26.21279297 -18.43554688 26.22265625 C-17.36369141 26.23941406 -16.29183594 26.25617187 -15.1875 26.2734375 C-14.10404297 26.28246094 -13.02058594 26.29148437 -11.90429688 26.30078125 C-9.2276429 26.3243641 -6.55143203 26.35727624 -3.875 26.3984375 C-3.88547363 25.71740967 -3.89594727 25.03638184 -3.90673828 24.3347168 C-3.94828878 21.25182784 -3.97432311 18.16899779 -4 15.0859375 C-4.01675781 14.01408203 -4.03351562 12.94222656 -4.05078125 11.83789062 C-4.05722656 10.80986328 -4.06367188 9.78183594 -4.0703125 8.72265625 C-4.08078613 7.77479248 -4.09125977 6.82692871 -4.10205078 5.8503418 C-3.82067673 2.81180454 -3.22929433 0.68622505 0 0 Z " fill="#dcb142" transform="translate(29.875,-0.3984375)"/>
</svg>
