<?xml version="1.0" standalone="no"?>
<!DOCTYPE svg PUBLIC "-//W3C//DTD SVG 20010904//EN"
 "http://www.w3.org/TR/2001/REC-SVG-20010904/DTD/svg10.dtd">
<svg version="1.0" xmlns="http://www.w3.org/2000/svg"
 width="96.000000pt" height="96.000000pt" viewBox="0 0 96.000000 96.000000"
 preserveAspectRatio="xMidYMid meet">

<g transform="translate(0.000000,96.000000) scale(0.100000,-0.100000)"
fill="#000000" stroke="none">
<path d="M502 948 c-7 -7 -12 -18 -12 -25 0 -7 -7 -13 -15 -13 -7 0 -18 -7
-22 -15 -7 -12 -40 -15 -168 -17 l-160 -3 0 -415 0 -415 21 -3 c12 -2 24 -12
27 -23 5 -19 15 -19 334 -17 l328 3 0 415 0 415 -52 3 c-45 3 -53 6 -53 23 0
16 -7 19 -55 19 -58 0 -59 1 -115 68 -14 15 -42 16 -58 0z m56 -25 c2 -8 -6
-13 -22 -13 -25 0 -33 10 -19 24 10 10 36 3 41 -11z m42 -57 c0 -13 3 -31 6
-40 5 -14 -5 -16 -71 -16 -75 0 -77 1 -71 23 3 12 6 30 6 40 0 14 10 17 65 17
62 0 65 -1 65 -24z m-150 -16 c0 -6 -43 -10 -110 -10 -89 0 -110 -3 -110 -14
0 -9 -12 -16 -27 -18 l-28 -3 -3 -372 c-2 -322 -4 -373 -17 -373 -13 0 -15 53
-15 400 l0 400 155 0 c97 0 155 -4 155 -10z m260 0 c0 -5 -20 -10 -45 -10 -25
0 -45 5 -45 10 0 6 20 10 45 10 25 0 45 -4 45 -10z m-285 -37 c-62 -15 -26
-23 103 -23 81 0 142 4 142 9 0 5 -10 12 -22 14 -13 2 21 5 75 6 l97 1 0 -400
0 -400 -285 0 -285 0 0 400 0 400 98 -1 c53 -1 88 -3 77 -6z m-195 -408 c0
-378 0 -385 -20 -385 -20 0 -20 7 -20 385 0 378 0 385 20 385 20 0 20 -7 20
-385z"/>
<path d="M643 683 c20 -2 54 -2 75 0 20 2 3 4 -38 4 -41 0 -58 -2 -37 -4z"/>
<path d="M315 630 c-4 -7 70 -10 214 -10 141 0 221 4 221 10 0 14 -427 14
-435 0z"/>
<path d="M315 570 c8 -14 435 -14 435 0 0 6 -80 10 -221 10 -144 0 -218 -3
-214 -10z"/>
<path d="M333 513 c15 -2 39 -2 55 0 15 2 2 4 -28 4 -30 0 -43 -2 -27 -4z"/>
<path d="M315 460 c-4 -7 70 -10 214 -10 141 0 221 4 221 10 0 14 -427 14
-435 0z"/>
<path d="M315 400 c8 -14 435 -14 435 0 0 6 -80 10 -221 10 -144 0 -218 -3
-214 -10z"/>
<path d="M315 350 c-4 -7 70 -10 214 -10 141 0 221 4 221 10 0 14 -427 14
-435 0z"/>
<path d="M310 290 c0 -5 25 -10 55 -10 30 0 55 5 55 10 0 6 -25 10 -55 10 -30
0 -55 -4 -55 -10z"/>
<path d="M315 230 c8 -14 435 -14 435 0 0 6 -80 10 -221 10 -144 0 -218 -3
-214 -10z"/>
<path d="M315 180 c-4 -7 70 -10 214 -10 141 0 221 4 221 10 0 14 -427 14
-435 0z"/>
<path d="M315 120 c3 -5 35 -10 71 -10 36 0 64 4 64 10 0 6 -30 10 -71 10 -44
0 -68 -4 -64 -10z"/>
</g>
</svg>
