<?xml version="1.0" standalone="no"?>
<!DOCTYPE svg PUBLIC "-//W3C//DTD SVG 20010904//EN"
 "http://www.w3.org/TR/2001/REC-SVG-20010904/DTD/svg10.dtd">
<svg version="1.0" xmlns="http://www.w3.org/2000/svg"
 width="64.000000pt" height="64.000000pt" viewBox="0 0 64.000000 64.000000"
 preserveAspectRatio="xMidYMid meet">

<g transform="translate(0.000000,64.000000) scale(0.100000,-0.100000)"
fill="#000000" stroke="none">
<path d="M233 599 c-83 -41 -121 -140 -89 -235 9 -27 36 -80 60 -119 l44 -69
-34 -12 c-51 -17 -65 -33 -62 -68 5 -51 53 -71 168 -71 115 0 163 20 168 71 3
35 -11 51 -62 68 l-34 12 49 79 c47 76 76 156 51 141 -6 -3 -13 -19 -17 -34
-10 -48 -136 -242 -157 -242 -12 0 -98 127 -134 198 -48 95 -45 172 9 230 34
36 73 53 127 54 53 0 81 -12 122 -50 37 -34 46 -23 11 13 -57 57 -145 71 -220
34z m56 -474 c13 -19 27 -35 31 -35 4 0 18 16 31 35 13 19 28 35 32 35 17 0
73 -28 86 -44 12 -14 11 -19 -4 -36 -51 -57 -239 -57 -290 0 -15 17 -16 22 -4
36 14 17 64 43 84 44 6 0 21 -16 34 -35z"/>
<path d="M285 564 c-35 -8 -75 -47 -89 -88 -19 -54 -5 -103 38 -143 31 -28 43
-33 87 -33 46 0 55 4 90 39 38 37 45 60 39 116 -8 73 -88 125 -165 109z m107
-41 c34 -31 50 -72 43 -110 -3 -19 -9 -33 -13 -31 -61 31 -60 30 -55 62 3 23
0 38 -12 49 -37 38 -91 6 -82 -48 4 -26 1 -33 -25 -48 -36 -21 -37 -20 -44 24
-6 39 25 95 66 117 32 16 96 9 122 -15z m-43 -50 c12 -23 -4 -53 -29 -53 -25
0 -41 29 -29 52 12 23 45 23 58 1z m31 -88 c17 -9 30 -20 30 -25 0 -18 -51
-43 -90 -43 -39 0 -90 25 -90 43 0 15 53 39 88 40 18 0 46 -7 62 -15z"/>
<path d="M490 473 c0 -13 5 -23 10 -23 13 0 13 11 0 30 -8 12 -10 11 -10 -7z"/>
</g>
</svg>
